<svg width="1080" height="1080" viewBox="0 0 1080 1080" fill="none" xmlns="http://www.w3.org/2000/svg">
<rect width="1080" height="1080" fill="#1E1E1E"/>
<rect x="0.5" y="0.5" width="1079" height="1079" fill="#1A001A"/>
<rect x="0.5" y="0.5" width="1079" height="1079" stroke="black"/>
<g filter="url(#filter0_d_0_1)">
<rect x="97" y="126" width="885" height="827" rx="50" fill="#1A001A"/>
<rect x="98" y="127" width="883" height="825" rx="49" stroke="#00F2FF" stroke-opacity="0.3" stroke-width="2"/>
</g>
<g opacity="0.6" filter="url(#filter1_dd_0_1)">
<path d="M240.523 568.624L197.515 548.368V536.368L240.523 516.112V527.152L212.683 540.016C211.403 540.592 210.123 541.104 208.843 541.552C207.627 541.936 206.667 542.192 205.963 542.32C206.667 542.448 207.659 542.704 208.939 543.088C210.219 543.472 211.467 543.952 212.683 544.528L240.523 557.392V568.624Z" fill="#00F2FF"/>
</g>
<g filter="url(#filter2_dd_0_1)">
<path d="M422.485 601C416.565 601 411.125 599.56 406.165 596.68C401.205 593.8 397.285 589.88 394.405 584.92C391.525 579.96 390.085 574.52 390.085 568.6V428.2H418.885V567.64C418.885 568.92 419.285 569.96 420.085 570.76C421.045 571.56 422.085 571.96 423.205 571.96H529.525C530.645 571.96 531.605 571.56 532.405 570.76C533.365 569.96 533.845 568.92 533.845 567.64V428.2H562.885V568.6C562.885 574.52 561.365 579.96 558.325 584.92C555.445 589.88 551.525 593.8 546.565 596.68C541.765 599.56 536.405 601 530.485 601H422.485Z" fill="#00F2FF"/>
</g>
<g filter="url(#filter3_dd_0_1)">
<path d="M580.745 663V519.24H508.745V490.2H681.545V519.24H609.545V663H580.745Z" fill="#00F2FF"/>
</g>
<g opacity="0.6" filter="url(#filter4_dd_0_1)">
<path d="M780.216 585.56L813.816 495.32H826.296L792.696 585.56H780.216ZM839.277 569.624V558.584L867.117 545.72C868.397 545.144 869.645 544.664 870.861 544.28C872.141 543.832 873.133 543.544 873.837 543.416C873.133 543.288 872.141 543.064 870.861 542.744C869.581 542.36 868.333 541.88 867.117 541.304L839.277 528.344V517.112L882.285 537.368V549.368L839.277 569.624Z" fill="#00F2FF"/>
</g>
<defs>
<filter id="filter0_d_0_1" x="81" y="110" width="917" height="859" filterUnits="userSpaceOnUse" color-interpolation-filters="sRGB">
<feFlood flood-opacity="0" result="BackgroundImageFix"/>
<feColorMatrix in="SourceAlpha" type="matrix" values="0 0 0 0 0 0 0 0 0 0 0 0 0 0 0 0 0 0 127 0" result="hardAlpha"/>
<feOffset/>
<feGaussianBlur stdDeviation="8"/>
<feComposite in2="hardAlpha" operator="out"/>
<feColorMatrix type="matrix" values="0 0 0 0 0 0 0 0 0 0.94902 0 0 0 0 1 0 0 0 0.45 0"/>
<feBlend mode="normal" in2="BackgroundImageFix" result="effect1_dropShadow_0_1"/>
<feBlend mode="normal" in="SourceGraphic" in2="effect1_dropShadow_0_1" result="shape"/>
</filter>
<filter id="filter1_dd_0_1" x="137.515" y="456.112" width="163.008" height="172.512" filterUnits="userSpaceOnUse" color-interpolation-filters="sRGB">
<feFlood flood-opacity="0" result="BackgroundImageFix"/>
<feColorMatrix in="SourceAlpha" type="matrix" values="0 0 0 0 0 0 0 0 0 0 0 0 0 0 0 0 0 0 127 0" result="hardAlpha"/>
<feOffset/>
<feGaussianBlur stdDeviation="30"/>
<feComposite in2="hardAlpha" operator="out"/>
<feColorMatrix type="matrix" values="0 0 0 0 0 0 0 0 0 0.94902 0 0 0 0 1 0 0 0 0.15 0"/>
<feBlend mode="normal" in2="BackgroundImageFix" result="effect1_dropShadow_0_1"/>
<feColorMatrix in="SourceAlpha" type="matrix" values="0 0 0 0 0 0 0 0 0 0 0 0 0 0 0 0 0 0 127 0" result="hardAlpha"/>
<feOffset/>
<feGaussianBlur stdDeviation="8"/>
<feComposite in2="hardAlpha" operator="out"/>
<feColorMatrix type="matrix" values="0 0 0 0 0 0 0 0 0 0.94902 0 0 0 0 1 0 0 0 0.45 0"/>
<feBlend mode="normal" in2="effect1_dropShadow_0_1" result="effect2_dropShadow_0_1"/>
<feBlend mode="normal" in="SourceGraphic" in2="effect2_dropShadow_0_1" result="shape"/>
</filter>
<filter id="filter2_dd_0_1" x="350.085" y="388.2" width="252.8" height="252.8" filterUnits="userSpaceOnUse" color-interpolation-filters="sRGB">
<feFlood flood-opacity="0" result="BackgroundImageFix"/>
<feColorMatrix in="SourceAlpha" type="matrix" values="0 0 0 0 0 0 0 0 0 0 0 0 0 0 0 0 0 0 127 0" result="hardAlpha"/>
<feOffset/>
<feGaussianBlur stdDeviation="20"/>
<feComposite in2="hardAlpha" operator="out"/>
<feColorMatrix type="matrix" values="0 0 0 0 0 0 0 0 0 0.94902 0 0 0 0 1 0 0 0 0.15 0"/>
<feBlend mode="normal" in2="BackgroundImageFix" result="effect1_dropShadow_0_1"/>
<feColorMatrix in="SourceAlpha" type="matrix" values="0 0 0 0 0 0 0 0 0 0 0 0 0 0 0 0 0 0 127 0" result="hardAlpha"/>
<feOffset/>
<feGaussianBlur stdDeviation="8"/>
<feComposite in2="hardAlpha" operator="out"/>
<feColorMatrix type="matrix" values="0 0 0 0 0 0 0 0 0 0.94902 0 0 0 0 1 0 0 0 0.45 0"/>
<feBlend mode="normal" in2="effect1_dropShadow_0_1" result="effect2_dropShadow_0_1"/>
<feBlend mode="normal" in="SourceGraphic" in2="effect2_dropShadow_0_1" result="shape"/>
</filter>
<filter id="filter3_dd_0_1" x="448.745" y="430.2" width="292.8" height="292.8" filterUnits="userSpaceOnUse" color-interpolation-filters="sRGB">
<feFlood flood-opacity="0" result="BackgroundImageFix"/>
<feColorMatrix in="SourceAlpha" type="matrix" values="0 0 0 0 0 0 0 0 0 0 0 0 0 0 0 0 0 0 127 0" result="hardAlpha"/>
<feOffset/>
<feGaussianBlur stdDeviation="30"/>
<feComposite in2="hardAlpha" operator="out"/>
<feColorMatrix type="matrix" values="0 0 0 0 0 0 0 0 0 0.94902 0 0 0 0 1 0 0 0 0.15 0"/>
<feBlend mode="normal" in2="BackgroundImageFix" result="effect1_dropShadow_0_1"/>
<feColorMatrix in="SourceAlpha" type="matrix" values="0 0 0 0 0 0 0 0 0 0 0 0 0 0 0 0 0 0 127 0" result="hardAlpha"/>
<feOffset/>
<feGaussianBlur stdDeviation="8"/>
<feComposite in2="hardAlpha" operator="out"/>
<feColorMatrix type="matrix" values="0 0 0 0 0 0 0 0 0 0.94902 0 0 0 0 1 0 0 0 0.45 0"/>
<feBlend mode="normal" in2="effect1_dropShadow_0_1" result="effect2_dropShadow_0_1"/>
<feBlend mode="normal" in="SourceGraphic" in2="effect2_dropShadow_0_1" result="shape"/>
</filter>
<filter id="filter4_dd_0_1" x="720.216" y="435.32" width="222.069" height="210.24" filterUnits="userSpaceOnUse" color-interpolation-filters="sRGB">
<feFlood flood-opacity="0" result="BackgroundImageFix"/>
<feColorMatrix in="SourceAlpha" type="matrix" values="0 0 0 0 0 0 0 0 0 0 0 0 0 0 0 0 0 0 127 0" result="hardAlpha"/>
<feOffset/>
<feGaussianBlur stdDeviation="30"/>
<feComposite in2="hardAlpha" operator="out"/>
<feColorMatrix type="matrix" values="0 0 0 0 0 0 0 0 0 0.94902 0 0 0 0 1 0 0 0 0.15 0"/>
<feBlend mode="normal" in2="BackgroundImageFix" result="effect1_dropShadow_0_1"/>
<feColorMatrix in="SourceAlpha" type="matrix" values="0 0 0 0 0 0 0 0 0 0 0 0 0 0 0 0 0 0 127 0" result="hardAlpha"/>
<feOffset/>
<feGaussianBlur stdDeviation="8"/>
<feComposite in2="hardAlpha" operator="out"/>
<feColorMatrix type="matrix" values="0 0 0 0 0 0 0 0 0 0.94902 0 0 0 0 1 0 0 0 0.45 0"/>
<feBlend mode="normal" in2="effect1_dropShadow_0_1" result="effect2_dropShadow_0_1"/>
<feBlend mode="normal" in="SourceGraphic" in2="effect2_dropShadow_0_1" result="shape"/>
</filter>
</defs>
</svg>
